<svg width="635" height="354" xmlns="http://www.w3.org/2000/svg" xmlns:xlink="http://www.w3.org/1999/xlink" xml:space="preserve" overflow="hidden"><defs><filter id="fx0" x="-10%" y="-10%" width="120%" height="120%" filterUnits="userSpaceOnUse" primitiveUnits="userSpaceOnUse"><feComponentTransfer color-interpolation-filters="sRGB"><feFuncR type="discrete" tableValues="0 0"/><feFuncG type="discrete" tableValues="0 0"/><feFuncB type="discrete" tableValues="0 0"/><feFuncA type="linear" slope="0.4" intercept="0"/></feComponentTransfer><feGaussianBlur stdDeviation="6.11111 6.11111"/></filter><clipPath id="clip1"><rect x="1188" y="157" width="635" height="354"/></clipPath></defs><g clip-path="url(#clip1)" transform="translate(-1188 -157)"><g filter="url(#fx0)" transform="translate(1187 156)"><g><rect x="33.7228" y="33.7229" width="569" height="288" stroke="#C5E0B4" stroke-width="27" stroke-miterlimit="8" fill="#A9D18E"/><path d="M210.723 175.223C210.723 115.852 258.852 67.7229 318.223 67.7229 377.593 67.7229 425.723 115.852 425.723 175.223 425.723 234.593 377.593 282.723 318.223 282.723 258.852 282.723 210.723 234.593 210.723 175.223Z" stroke="#C5E0B4" stroke-width="27" stroke-miterlimit="8" fill="#A9D18E" fill-rule="evenodd"/></g></g><rect x="1211" y="180" width="569" height="288" stroke="#C5E0B4" stroke-width="27.5" stroke-miterlimit="8" fill="#A9D18E"/><path d="M1388 321.5C1388 262.13 1436.13 214 1495.5 214 1554.87 214 1603 262.13 1603 321.5 1603 380.871 1554.87 429 1495.5 429 1436.13 429 1388 380.871 1388 321.5Z" stroke="#C5E0B4" stroke-width="27.5" stroke-miterlimit="8" fill="#A9D18E" fill-rule="evenodd"/></g></svg>